<svg width="13" height="12" viewBox="0 0 13 12" fill="none" xmlns="http://www.w3.org/2000/svg">
<path fill-rule="evenodd" clip-rule="evenodd" d="M3.74421 0.0736373C2.76816 0.117707 1.92217 0.356504 1.23905 1.03721C0.553543 1.72149 0.317874 2.57141 0.273725 3.53798C0.246281 4.14127 0.0858013 8.69895 0.551157 9.89421C0.864974 10.7006 1.48305 11.3206 2.29623 11.6356C2.67567 11.7833 3.10882 11.8833 3.74421 11.9125C9.05702 12.1531 11.0264 12.0221 11.8569 9.89421C12.0043 9.51544 12.1057 9.08237 12.1337 8.44812C12.3766 3.11801 12.0944 1.96268 11.1684 1.03721C10.434 0.304095 9.57011 -0.194952 3.74421 0.0736373ZM3.79312 10.8405C3.21143 10.8143 2.89582 10.7173 2.68522 10.6357C2.15543 10.4297 1.75749 10.0331 1.55286 9.50603C1.19847 8.59782 1.31601 4.2843 1.34763 3.58632C1.37865 2.90263 1.51706 2.27779 1.99912 1.79541C2.59573 1.19986 3.36655 0.907991 8.61493 1.14502C9.29983 1.17599 9.92569 1.31421 10.4089 1.79541C11.0056 2.39095 11.3015 3.16823 11.0604 8.40007C11.0342 8.98073 10.9369 9.2958 10.8552 9.50603C10.3153 10.8907 9.07312 11.0829 3.79312 10.8405ZM8.6728 2.81376C8.6728 3.20802 8.99319 3.52861 9.38874 3.52861C9.7843 3.52861 10.1053 3.20802 10.1053 2.81376C10.1053 2.41952 9.7843 2.09922 9.38874 2.09922C8.99319 2.09922 8.6728 2.41952 8.6728 2.81376ZM3.14044 5.99276C3.14044 7.68172 4.51205 9.05105 6.20403 9.05105C7.89602 9.05105 9.26763 7.68172 9.26763 5.99276C9.26763 4.3038 7.89602 2.93535 6.20403 2.93535C4.51205 2.93535 3.14044 4.3038 3.14044 5.99276ZM4.21553 5.99276C4.21553 4.89696 5.10567 4.0079 6.20403 4.0079C7.30239 4.0079 8.19254 4.89696 8.19254 5.99276C8.19254 7.08915 7.30239 7.97849 6.20403 7.97849C5.10567 7.97849 4.21553 7.08915 4.21553 5.99276Z" fill="white"/>
</svg>
