<svg width="33" height="33" viewBox="0 0 33 33" fill="none" xmlns="http://www.w3.org/2000/svg">
<path d="M16.8325 2.5286C16.8325 2.5286 25.0847 2.15961 29.4598 10.4247H16.1304C16.1304 10.4247 13.6148 10.3439 11.466 13.3847C10.8487 14.661 10.1852 15.9758 10.9298 18.5668C9.8572 16.7561 5.23535 8.73712 5.23535 8.73712C5.23535 8.73712 8.49535 2.85535 16.8324 2.5286H16.8325Z" fill="#EF3F36"/>
<path d="M29.0314 23.5104C29.0314 23.5104 25.2235 30.8182 15.8564 30.4569C17.0138 28.4617 22.523 18.9549 22.523 18.9549C22.523 18.9549 23.854 16.8253 22.2838 13.45C21.4851 12.2776 20.6711 11.0513 18.0478 10.3977C20.1581 10.3785 29.4366 10.3977 29.4366 10.3977C29.4366 10.3977 32.9125 16.1525 29.0314 23.5104Z" fill="#FCD900"/>
<path d="M4.69134 23.5681C4.69134 23.5681 0.243039 16.6292 5.24298 8.72546C6.39656 10.7207 11.9057 20.2275 11.9057 20.2275C11.9057 20.2275 13.094 22.4418 16.8093 22.7722C18.2252 22.6685 19.699 22.5801 21.5818 20.6465C20.5438 22.4764 15.8871 30.4724 15.8871 30.4724C15.8871 30.4724 9.14337 30.5954 4.69123 23.5681H4.69134Z" fill="#61BC5B"/>
<path d="M15.8525 30.5261L17.7275 22.73C17.7275 22.73 19.7877 22.5685 21.5162 20.681C20.4436 22.5609 15.8525 30.5261 15.8525 30.5261Z" fill="#5AB055"/>
<path d="M10.5518 16.6138C10.5518 13.1771 13.3489 10.39 16.7979 10.39C20.2468 10.39 23.0439 13.1771 23.0439 16.6138C23.0439 20.0505 20.2468 22.8375 16.7979 22.8375C13.3489 22.8337 10.5518 20.0505 10.5518 16.6138Z" fill="white"/>
<path d="M11.5972 16.6139C11.5972 13.7538 13.9236 11.4319 16.7979 11.4319C19.6682 11.4319 21.9984 13.75 21.9984 16.6139C21.9984 19.4741 19.6721 21.796 16.7979 21.796C13.9274 21.796 11.5972 19.4741 11.5972 16.6139Z" fill="url(#paint0_linear_190_10107)"/>
<path d="M29.4327 10.4016L21.7128 12.6582C21.7128 12.6582 20.5477 10.9551 18.0439 10.4016C20.216 10.3901 29.4327 10.4016 29.4327 10.4016Z" fill="#EACA05"/>
<path d="M10.7794 18.2824C9.69516 16.4102 5.23535 8.73706 5.23535 8.73706L10.9529 14.3727C10.9529 14.3727 10.3664 15.576 10.5864 17.2982L10.7793 18.2824H10.7794Z" fill="#DF3A32"/>
<defs>
<linearGradient id="paint0_linear_190_10107" x1="16.7976" y1="11.5051" x2="16.7976" y2="21.4841" gradientUnits="userSpaceOnUse">
<stop stop-color="#86BBE5"/>
<stop offset="1" stop-color="#1072BA"/>
</linearGradient>
</defs>
</svg>
