<svg width="33" height="33" viewBox="0 0 33 33" fill="none" xmlns="http://www.w3.org/2000/svg">
<path d="M2.83203 12.1248C2.83203 8.76447 2.83203 7.08431 3.48599 5.80084C4.06123 4.67186 4.97912 3.75398 6.10809 3.17874C7.39156 2.52478 9.07172 2.52478 12.432 2.52478H21.232C24.5923 2.52478 26.2725 2.52478 27.556 3.17874C28.6849 3.75398 29.6028 4.67186 30.1781 5.80084C30.832 7.08431 30.832 8.76447 30.832 12.1248V20.9248C30.832 24.2851 30.832 25.9653 30.1781 27.2487C29.6028 28.3777 28.6849 29.2956 27.556 29.8708C26.2725 30.5248 24.5923 30.5248 21.232 30.5248H12.432C9.07172 30.5248 7.39156 30.5248 6.10809 29.8708C4.97912 29.2956 4.06123 28.3777 3.48599 27.2487C2.83203 25.9653 2.83203 24.2851 2.83203 20.9248V12.1248Z" fill="white"/>
<path d="M24.4682 9.86476C23.044 9.23877 21.5213 8.78381 19.9294 8.52478C19.7338 8.85687 19.5054 9.30353 19.348 9.65886C17.6557 9.41976 15.9789 9.41976 14.3177 9.65886C14.1603 9.30353 13.9267 8.85687 13.7295 8.52478C12.1358 8.78381 10.6113 9.24043 9.18721 9.86808C6.31479 13.9461 5.53612 17.9229 5.92545 21.8432C7.8306 23.1798 9.6769 23.9918 11.4921 24.5231C11.9402 23.9436 12.3399 23.3276 12.6843 22.6784C12.0285 22.4442 11.4004 22.1554 10.8068 21.8199C10.9643 21.7104 11.1183 21.5958 11.2671 21.4779C14.8871 23.0686 18.8202 23.0686 22.3969 21.4779C22.5474 21.5958 22.7014 21.7104 22.8572 21.8199C22.2619 22.157 21.6321 22.4459 20.9762 22.68C21.3206 23.3276 21.7186 23.9453 22.1684 24.5248C23.9853 23.9934 25.8334 23.1815 27.7385 21.8432C28.1954 17.2986 26.9581 13.3583 24.4682 9.86476ZM13.1774 19.4322C12.0908 19.4322 11.1996 18.4791 11.1996 17.3185C11.1996 16.1578 12.0717 15.2031 13.1774 15.2031C14.2832 15.2031 15.1743 16.1562 15.1552 17.3185C15.157 18.4791 14.2832 19.4322 13.1774 19.4322ZM20.4866 19.4322C19.3999 19.4322 18.5087 18.4791 18.5087 17.3185C18.5087 16.1578 19.3808 15.2031 20.4866 15.2031C21.5922 15.2031 22.4834 16.1562 22.4644 17.3185C22.4644 18.4791 21.5922 19.4322 20.4866 19.4322Z" fill="#5865F2"/>
</svg>
