<svg width="33" height="33" viewBox="0 0 33 33" fill="none" xmlns="http://www.w3.org/2000/svg">
<rect x="2.83203" y="2.52478" width="28" height="28" rx="6" fill="url(#paint0_radial_190_10166)"/>
<rect x="2.83203" y="2.52478" width="28" height="28" rx="6" fill="url(#paint1_radial_190_10166)"/>
<rect x="2.83203" y="2.52478" width="28" height="28" rx="6" fill="url(#paint2_radial_190_10166)"/>
<path d="M23.832 11.0248C23.832 11.8532 23.1605 12.5248 22.332 12.5248C21.5036 12.5248 20.832 11.8532 20.832 11.0248C20.832 10.1964 21.5036 9.52478 22.332 9.52478C23.1605 9.52478 23.832 10.1964 23.832 11.0248Z" fill="white"/>
<path fill-rule="evenodd" clip-rule="evenodd" d="M16.832 21.5248C19.5935 21.5248 21.832 19.2862 21.832 16.5248C21.832 13.7634 19.5935 11.5248 16.832 11.5248C14.0706 11.5248 11.832 13.7634 11.832 16.5248C11.832 19.2862 14.0706 21.5248 16.832 21.5248ZM16.832 19.5248C18.4889 19.5248 19.832 18.1816 19.832 16.5248C19.832 14.8679 18.4889 13.5248 16.832 13.5248C15.1752 13.5248 13.832 14.8679 13.832 16.5248C13.832 18.1816 15.1752 19.5248 16.832 19.5248Z" fill="white"/>
<path fill-rule="evenodd" clip-rule="evenodd" d="M6.83203 16.1248C6.83203 12.7645 6.83203 11.0843 7.48599 9.80084C8.06123 8.67186 8.97912 7.75398 10.1081 7.17874C11.3916 6.52478 13.0717 6.52478 16.432 6.52478H17.232C20.5923 6.52478 22.2725 6.52478 23.556 7.17874C24.6849 7.75398 25.6028 8.67186 26.1781 9.80084C26.832 11.0843 26.832 12.7645 26.832 16.1248V16.9248C26.832 20.2851 26.832 21.9653 26.1781 23.2487C25.6028 24.3777 24.6849 25.2956 23.556 25.8708C22.2725 26.5248 20.5923 26.5248 17.232 26.5248H16.432C13.0717 26.5248 11.3916 26.5248 10.1081 25.8708C8.97912 25.2956 8.06123 24.3777 7.48599 23.2487C6.83203 21.9653 6.83203 20.2851 6.83203 16.9248V16.1248ZM16.432 8.52478H17.232C18.9452 8.52478 20.1098 8.52634 21.01 8.59988C21.8868 8.67152 22.3352 8.80137 22.648 8.96075C23.4006 9.34425 24.0126 9.95617 24.3961 10.7088C24.5554 11.0216 24.6853 11.47 24.7569 12.3469C24.8305 13.247 24.832 14.4116 24.832 16.1248V16.9248C24.832 18.6379 24.8305 19.8025 24.7569 20.7027C24.6853 21.5795 24.5554 22.0279 24.3961 22.3407C24.0126 23.0934 23.4006 23.7053 22.648 24.0888C22.3352 24.2482 21.8868 24.378 21.01 24.4497C20.1098 24.5232 18.9452 24.5248 17.232 24.5248H16.432C14.7189 24.5248 13.5543 24.5232 12.6541 24.4497C11.7773 24.378 11.3289 24.2482 11.0161 24.0888C10.2634 23.7053 9.6515 23.0934 9.26801 22.3407C9.10863 22.0279 8.97877 21.5795 8.90713 20.7027C8.83359 19.8025 8.83203 18.6379 8.83203 16.9248V16.1248C8.83203 14.4116 8.83359 13.247 8.90713 12.3469C8.97877 11.47 9.10863 11.0216 9.26801 10.7088C9.6515 9.95617 10.2634 9.34425 11.0161 8.96075C11.3289 8.80137 11.7773 8.67152 12.6541 8.59988C13.5543 8.52634 14.7189 8.52478 16.432 8.52478Z" fill="white"/>
<defs>
<radialGradient id="paint0_radial_190_10166" cx="0" cy="0" r="1" gradientUnits="userSpaceOnUse" gradientTransform="translate(12.832 23.5248) rotate(-55.3758) scale(25.5196)">
<stop stop-color="#B13589"/>
<stop offset="0.79309" stop-color="#C62F94"/>
<stop offset="1" stop-color="#8A3AC8"/>
</radialGradient>
<radialGradient id="paint1_radial_190_10166" cx="0" cy="0" r="1" gradientUnits="userSpaceOnUse" gradientTransform="translate(11.832 31.5248) rotate(-65.1363) scale(22.5942)">
<stop stop-color="#E0E8B7"/>
<stop offset="0.444662" stop-color="#FB8A2E"/>
<stop offset="0.71474" stop-color="#E2425C"/>
<stop offset="1" stop-color="#E2425C" stop-opacity="0"/>
</radialGradient>
<radialGradient id="paint2_radial_190_10166" cx="0" cy="0" r="1" gradientUnits="userSpaceOnUse" gradientTransform="translate(1.33203 3.52478) rotate(-8.1301) scale(38.8909 8.31836)">
<stop offset="0.156701" stop-color="#406ADC"/>
<stop offset="0.467799" stop-color="#6A45BE"/>
<stop offset="1" stop-color="#6A45BE" stop-opacity="0"/>
</radialGradient>
</defs>
</svg>
