<svg width="33" height="33" viewBox="0 0 33 33" fill="none" xmlns="http://www.w3.org/2000/svg">
<rect x="2.83203" y="2.52478" width="28" height="28" rx="14" fill="#1275B1"/>
<path d="M13.4506 10.2169C13.4506 11.1515 12.6405 11.9091 11.6413 11.9091C10.6421 11.9091 9.83203 11.1515 9.83203 10.2169C9.83203 9.28238 10.6421 8.52478 11.6413 8.52478C12.6405 8.52478 13.4506 9.28238 13.4506 10.2169Z" fill="white"/>
<path d="M10.0795 13.1529H13.1722V22.5248H10.0795V13.1529Z" fill="white"/>
<path d="M18.1516 13.1529H15.0588V22.5248H18.1516C18.1516 22.5248 18.1516 19.5744 18.1516 17.7296C18.1516 16.6224 18.5297 15.5103 20.0382 15.5103C21.743 15.5103 21.7328 16.9593 21.7248 18.0819C21.7144 19.5492 21.7392 21.0466 21.7392 22.5248H24.832V17.5785C24.8058 14.4202 23.9829 12.9649 21.2753 12.9649C19.6674 12.9649 18.6707 13.6948 18.1516 14.3553V13.1529Z" fill="white"/>
</svg>
