<svg width="33" height="33" viewBox="0 0 33 33" fill="none" xmlns="http://www.w3.org/2000/svg">
<path d="M30.832 19.5248C30.832 12.5248 27.332 7.52478 22.832 7.52478C19.332 7.52478 16.832 11.5248 16.832 11.5248C14.832 14.5248 14.832 20.0248 17.832 14.0248C17.832 14.0248 20.332 10.0248 22.832 10.0248C26.332 10.0248 28.1763 16.0248 28.1763 19.5248C28.1763 20.5248 27.832 22.5248 25.832 22.5248V25.5248C27.832 25.5248 30.832 24.0248 30.832 19.5248Z" fill="url(#paint0_radial_190_10234)"/>
<path d="M10.832 7.52478V10.5248C7.63203 10.9248 5.83203 16.0248 5.83203 19.5248C5.83203 20.5248 6.33203 22.5248 7.83203 22.5248C10.332 22.5248 13.2068 17.0047 15.832 12.9674C17.2257 10.8241 18.6129 12.6644 17.5551 14.5248C15.0488 18.9329 12.539 25.5248 7.83203 25.5248C5.83203 25.5248 2.83203 24.0248 2.83203 19.5248C2.83203 10.5248 8.33203 7.52478 10.832 7.52478Z" fill="url(#paint1_radial_190_10234)"/>
<path d="M25.832 22.5248C22.332 22.5248 18.332 7.52478 10.832 7.52478V10.5248C16.832 10.5248 19.332 25.5248 25.832 25.5248V22.5248Z" fill="#0768E1"/>
<defs>
<radialGradient id="paint0_radial_190_10234" cx="0" cy="0" r="1" gradientUnits="userSpaceOnUse" gradientTransform="translate(25.832 24.5248) rotate(-101.31) scale(17.8466 13.8807)">
<stop stop-color="#0768E1"/>
<stop offset="1" stop-color="#0082FB"/>
</radialGradient>
<radialGradient id="paint1_radial_190_10234" cx="0" cy="0" r="1" gradientUnits="userSpaceOnUse" gradientTransform="translate(10.832 9.52478) rotate(154.537) scale(11.6297 6.09968)">
<stop stop-color="#0768E1"/>
<stop offset="1" stop-color="#0082FB"/>
</radialGradient>
</defs>
</svg>
