<svg width="33" height="33" viewBox="0 0 33 33" fill="none" xmlns="http://www.w3.org/2000/svg">
<path fill-rule="evenodd" clip-rule="evenodd" d="M16.832 31.5248C24.564 31.5248 30.832 25.2568 30.832 17.5248C30.832 9.79279 24.564 3.52478 16.832 3.52478C9.10005 3.52478 2.83203 9.79279 2.83203 17.5248C2.83203 20.0357 3.49303 22.3922 4.65051 24.4298L2.83203 31.5248L10.1469 29.8286C12.1334 30.9102 14.411 31.5248 16.832 31.5248ZM16.832 29.3709C23.3745 29.3709 28.6782 24.0672 28.6782 17.5248C28.6782 10.9823 23.3745 5.67863 16.832 5.67863C10.2896 5.67863 4.98588 10.9823 4.98588 17.5248C4.98588 20.0508 5.77653 22.3922 7.12387 24.315L6.0628 28.294L10.112 27.2817C12.0214 28.5993 14.3366 29.3709 16.832 29.3709Z" fill="#BFC8D0"/>
<path d="M28.832 16.5248C28.832 23.1522 23.4594 28.5248 16.832 28.5248C14.3042 28.5248 11.9589 27.7432 10.0247 26.4084L5.92294 27.4339L6.99779 23.4032C5.63296 21.4555 4.83203 19.0837 4.83203 16.5248C4.83203 9.89736 10.2046 4.52478 16.832 4.52478C23.4594 4.52478 28.832 9.89736 28.832 16.5248Z" fill="url(#paint0_linear_190_10281)"/>
<path fill-rule="evenodd" clip-rule="evenodd" d="M16.832 30.5248C24.564 30.5248 30.832 24.2568 30.832 16.5248C30.832 8.79279 24.564 2.52478 16.832 2.52478C9.10005 2.52478 2.83203 8.79279 2.83203 16.5248C2.83203 19.0357 3.49303 21.3922 4.65051 23.4298L2.83203 30.5248L10.1469 28.8286C12.1334 29.9102 14.411 30.5248 16.832 30.5248ZM16.832 28.3709C23.3745 28.3709 28.6782 23.0672 28.6782 16.5248C28.6782 9.98233 23.3745 4.67863 16.832 4.67863C10.2896 4.67863 4.98588 9.98233 4.98588 16.5248C4.98588 19.0508 5.77653 21.3922 7.12387 23.315L6.0628 27.294L10.112 26.2817C12.0214 27.5993 14.3366 28.3709 16.832 28.3709Z" fill="white"/>
<path d="M13.3321 10.0248C12.9992 9.35621 12.4886 9.4154 11.9727 9.4154C11.0508 9.4154 9.61328 10.5197 9.61328 12.5749C9.61328 14.2592 10.3555 16.1029 12.8564 18.861C15.2701 21.5228 18.4414 22.8997 21.0742 22.8528C23.707 22.806 24.2487 20.5403 24.2487 19.7752C24.2487 19.4361 24.0383 19.2669 23.8933 19.2209C22.9961 18.7903 21.3414 17.988 20.9649 17.8373C20.5883 17.6866 20.3918 17.8905 20.2695 18.0014C19.9281 18.3267 19.2513 19.2857 19.0195 19.5014C18.7878 19.7171 18.4423 19.6079 18.2985 19.5264C17.7695 19.3141 16.335 18.676 15.1915 17.5675C13.7774 16.1967 13.6944 15.725 13.4279 15.3052C13.2148 14.9693 13.3712 14.7633 13.4492 14.6732C13.7539 14.3217 14.1746 13.7789 14.3633 13.5092C14.552 13.2394 14.4022 12.8299 14.3123 12.5749C13.9258 11.4779 13.5983 10.5597 13.3321 10.0248Z" fill="white"/>
<defs>
<linearGradient id="paint0_linear_190_10281" x1="27.332" y1="7.52478" x2="4.83203" y2="28.5248" gradientUnits="userSpaceOnUse">
<stop stop-color="#5BD066"/>
<stop offset="1" stop-color="#27B43E"/>
</linearGradient>
</defs>
</svg>
